<?xml version="1.0" encoding="UTF-8"?>
<svg xmlns="http://www.w3.org/2000/svg"
     version="1.2"
     baseProfile="tiny-ps"
     viewBox="0 0 96 96"
     width="96"
     height="96">
  <title>Replaiy</title>
  <desc>Replaiy logo</desc>
  <rect width="96" height="96" fill="#000000"/>
  <path fill="#FFFFFF" d="M19.5741 63.854L17.814 32.9567L29.202 32.308C31.4101 32.1821 33.401 32.5087 35.1752 33.2877C36.9793 34.0651 38.4264 35.2269 39.5158 36.7731C40.6357 38.3174 41.2583 40.1939 41.384 42.402C41.5117 44.6399 41.1064 46.5901 40.1695 48.2519C39.263 49.9118 37.9576 51.2299 36.2526 52.2075C34.5768 53.1521 32.6349 53.6876 30.4268 53.8134L24.2113 54.1679L23.8469 47.7704L29.5636 47.4445C31.2272 47.3498 32.492 46.9141 33.3578 46.1359C34.2528 45.3266 34.6594 44.2111 34.5787 42.7895C34.4974 41.3678 33.9676 40.3209 32.9887 39.6482C32.0378 38.9437 30.7311 38.6388 29.0673 38.7334L23.3052 39.0619L24.7172 37.4795L26.1982 63.4767L19.5741 63.854ZM35.59 62.9418L28.2952 50.749L35.5544 50.3355L42.8489 62.5283L35.59 62.9418ZM55.3974 62.2227C53.1893 62.3485 51.2118 61.9909 49.4643 61.1498C47.7472 60.3068 46.3707 59.0503 45.3352 57.3796C44.3297 55.7071 43.7605 53.7067 43.6277 51.3773C43.4969 49.079 43.8348 47.0265 44.6422 45.2205C45.4801 43.4126 46.7029 41.9776 48.3113 40.9149C49.9484 39.8197 51.8712 39.2099 54.0793 39.0841C56.3478 38.9545 58.343 39.3572 60.0652 40.2904C61.7873 41.2242 63.1518 42.5423 64.1593 44.2448C65.1649 45.9174 65.7296 47.8422 65.8541 50.0204C65.8764 50.4136 65.8827 50.7922 65.8732 51.1568C65.8637 51.5221 65.8497 51.8111 65.8313 52.0246L48.9085 52.9882L48.6398 48.2697L60.4813 47.595L59.8212 49.5903C59.7266 47.9266 59.2254 46.5895 58.3183 45.5794C57.441 44.5669 56.1407 44.1101 54.4166 44.2086C52.8736 44.2962 51.6603 44.8356 50.7761 45.8265C49.9223 46.8162 49.5393 48.0823 49.6269 49.6246L49.7692 52.1199C49.8639 53.7836 50.407 55.0572 51.398 55.9415C52.4175 56.794 53.7744 57.1719 55.468 57.0754C56.8896 56.9947 57.9924 56.6434 58.7763 56.0221C59.5907 55.399 60.2608 54.6481 60.7875 53.7683L65.4215 56.0075C64.5551 57.8472 63.2731 59.3165 61.5758 60.4142C59.8765 61.482 57.8171 62.0849 55.3974 62.2227ZM73.8283 61.2184C73.012 61.2648 72.2434 61.0964 71.5236 60.7128C70.8039 60.3284 70.2125 59.8012 69.7494 59.1297C69.2863 58.4577 69.0316 57.7138 68.9852 56.8969C68.937 56.0501 69.1047 55.2668 69.4883 54.5471C69.872 53.8274 70.4005 53.2512 71.0739 52.818C71.7453 52.3549 72.4899 52.1002 73.3061 52.0538C74.1834 52.0036 74.9819 52.1707 75.7016 52.5544C76.4201 52.9082 76.9956 53.4215 77.4282 54.0948C77.8913 54.7663 78.1467 55.5254 78.1949 56.3722C78.242 57.1891 78.073 57.9571 77.6893 58.6774C77.3355 59.3953 76.8228 59.986 76.1514 60.4491C75.4799 60.9122 74.7056 61.1689 73.8283 61.2184ZM73.0063 46.7908C72.19 46.8372 71.4214 46.6689 70.7016 46.2845C69.9819 45.9009 69.3905 45.373 68.9274 44.7015C68.4643 44.0301 68.2096 43.2862 68.1632 42.4693C68.1149 41.6225 68.2833 40.8539 68.6689 40.1646C69.0526 39.4449 69.5804 38.8535 70.2519 38.3904C70.9233 37.9273 71.6678 37.6726 72.4841 37.6256C73.3614 37.576 74.1599 37.7425 74.8796 38.1268C75.6 38.5105 76.1761 39.039 76.6087 39.7123C77.0699 40.3533 77.3253 41.0978 77.3736 41.9446C77.4199 42.7615 77.251 43.5295 76.8673 44.2492C76.5135 44.9677 76.0015 45.5578 75.3294 46.0209C74.6579 46.484 73.8836 46.7406 73.0063 46.7908Z"/>
</svg>
